<?xml version="1.0" encoding="UTF-8" standalone="no"?>
<svg
   xmlns:dc="http://purl.org/dc/elements/1.1/"
   xmlns:cc="http://creativecommons.org/ns#"
   xmlns:rdf="http://www.w3.org/1999/02/22-rdf-syntax-ns#"
   xmlns:svg="http://www.w3.org/2000/svg"
   xmlns="http://www.w3.org/2000/svg"
   viewBox="0 0 1058.2679 415.74933"
   height="415.74933"
   width="1058.2679"
   xml:space="preserve"
   id="svg2"
   version="1.1"><metadata
     id="metadata8"><rdf:RDF><cc:Work
         rdf:about=""><dc:format>image/svg+xml</dc:format><dc:type
           rdf:resource="http://purl.org/dc/dcmitype/StillImage" /></cc:Work></rdf:RDF></metadata><defs
     id="defs6"><clipPath
       id="clipPath22"
       clipPathUnits="userSpaceOnUse"><path
         id="path20"
         d="M 0,311.812 H 793.701 V 0 H 0 Z" /></clipPath><clipPath
       id="clipPath30"
       clipPathUnits="userSpaceOnUse"><path
         id="path28"
         d="M 20.083,295.684 H 142.979 V 11.917 H 20.083 Z" /></clipPath></defs><g
     transform="matrix(1.3333333,0,0,-1.3333333,0,415.74933)"
     id="g10"><g
       transform="translate(20.1016,82.835)"
       id="g12"><path
         id="path14"
         style="fill:#ef5a24;fill-opacity:1;fill-rule:nonzero;stroke:none"
         d="m 0,0 -0.019,141.894 122.885,70.955 122.888,-70.926 0.022,-141.9 -122.88,-70.949 z" /></g><g
       id="g16"><g
         clip-path="url(#clipPath22)"
         id="g18"><g
           id="g24"><g
             id="g26" /><g
             id="g38"><g
               style="opacity:0.5"
               id="g36"
               clip-path="url(#clipPath30)"><g
                 id="g34"
                 transform="translate(142.9678,295.6836)"><path
                   id="path32"
                   style="fill:#fcea10;fill-opacity:1;fill-rule:nonzero;stroke:none"
                   d="m 0,0 -122.885,-70.955 0.019,-141.894 122.877,-70.918 V -0.003 Z" /></g></g></g></g><g
           transform="translate(196.4297,186.8379)"
           id="g40"><path
             id="path42"
             style="fill:#ffffff;fill-opacity:1;fill-rule:nonzero;stroke:none"
             d="m 0,0 c 3.025,-7.354 4.543,-15.028 4.543,-23.03 0,-14.705 -4.457,-27.49 -13.378,-38.359 -8.819,-10.813 -20.679,-17.894 -35.602,-21.247 l -0.159,-20.679 c -2.652,0.379 -5.031,1.463 -7.14,3.246 -0.924,0.753 -1.796,1.689 -2.634,2.798 -0.838,1.112 -1.599,2.448 -2.268,4.011 -0.68,1.572 -1.206,3.408 -1.585,5.513 -0.375,2.113 -0.567,4.518 -0.567,7.221 0,4.109 -0.009,8.324 -0.034,12.65 -0.034,4.326 -0.042,8.258 -0.042,11.798 v 8.643 3.237 c 2.101,-0.429 3.942,-1.093 5.509,-1.986 1.566,-0.889 2.892,-1.936 3.977,-3.124 1.081,-1.185 1.945,-2.445 2.591,-3.767 0.645,-1.329 1.165,-2.663 1.539,-4.017 0.868,-3.135 1.141,-6.568 0.813,-10.296 10.06,2.703 18.059,8.111 24.006,16.218 6.001,8.111 8.997,17.544 8.997,28.302 0,6.27 -1.106,12.137 -3.318,17.598 -1.085,2.756 -2.413,5.381 -3.979,7.87 -1.568,2.485 -3.402,4.807 -5.516,6.971 -3.782,3.621 -7.526,6.391 -11.232,8.313 -3.705,1.919 -7.245,3.271 -10.622,4.054 -3.377,0.784 -6.537,1.119 -9.486,1.013 -2.947,-0.106 -5.538,-0.391 -7.785,-0.85 -2.246,-0.46 -4.07,-0.975 -5.471,-1.541 -1.407,-0.571 -2.27,-0.906 -2.597,-1.012 -2.648,-1.192 -5.136,-2.596 -7.462,-4.22 -2.324,-1.621 -4.514,-3.54 -6.569,-5.757 -4.217,-4.376 -7.432,-9.354 -9.647,-14.918 -2.222,-5.572 -3.323,-11.409 -3.323,-17.521 0,-10.598 2.968,-20.004 8.916,-28.221 1.408,-1.95 3.071,-3.811 4.989,-5.595 1.916,-1.781 3.983,-3.419 6.2,-4.904 2.22,-1.489 4.543,-2.785 6.98,-3.895 2.429,-1.109 4.892,-1.932 7.38,-2.473 v -14.758 c -3.892,0.592 -7.627,1.567 -11.196,2.919 -3.565,1.349 -6.916,2.956 -10.052,4.824 -3.134,1.863 -6.053,3.972 -8.758,6.326 -2.707,2.353 -5.11,4.823 -7.224,7.418 -8.699,10.815 -13.055,23.546 -13.055,38.197 0,8.112 1.459,15.811 4.381,23.111 2.867,7.19 7.22,13.707 13.055,19.547 5.565,5.726 11.98,10.138 19.219,13.217 0.652,0.268 2.034,0.771 4.136,1.503 2.114,0.726 4.76,1.377 7.946,1.943 3.194,0.569 6.833,0.88 10.912,0.932 4.08,0.054 8.417,-0.46 13.012,-1.54 4.594,-1.081 9.325,-2.88 14.192,-5.395 4.863,-2.514 9.704,-6.065 14.515,-10.66 2.922,-2.812 5.418,-5.869 7.504,-9.167 C -3.306,7.164 -1.505,3.676 0,0" /></g><g
           transform="translate(591.2241,100.3467)"
           id="g44"><path
             id="path46"
             style="fill:#ef5a24;fill-opacity:1;fill-rule:nonzero;stroke:none"
             d="m 0,0 c -19.163,0 -34.753,15.592 -34.753,34.757 0,19.164 15.59,34.758 34.753,34.758 19.171,0 34.756,-15.594 34.756,-34.758 C 34.756,15.592 19.171,0 0,0 m 0,85.034 c -27.721,0 -50.276,-22.555 -50.276,-50.277 0,-27.724 22.555,-50.271 50.276,-50.271 9.011,0 17.865,2.41 25.587,6.987 l 9.169,5.438 v -10.66 -28.221 c 0,-4.284 3.484,-7.762 7.759,-7.762 h 7.76 v 7.762 76.727 C 50.275,62.479 27.72,85.034 0,85.034" /></g><g
           transform="translate(484.3882,100.292)"
           id="g48"><path
             id="path50"
             style="fill:#ef5a24;fill-opacity:1;fill-rule:nonzero;stroke:none"
             d="m 0,0 c -19.165,0 -34.75,15.586 -34.75,34.755 0,19.165 15.585,34.752 34.75,34.752 19.164,0 34.751,-15.587 34.751,-34.752 C 34.751,15.586 19.164,0 0,0 m 0,85.031 c -27.722,0 -50.276,-22.552 -50.276,-50.276 0,-27.725 22.554,-50.282 50.276,-50.282 27.723,0 50.281,22.557 50.281,50.282 0,27.724 -22.558,50.276 -50.281,50.276" /></g><g
           transform="translate(377.5503,100.292)"
           id="g52"><path
             id="path54"
             style="fill:#ef5a24;fill-opacity:1;fill-rule:nonzero;stroke:none"
             d="m 0,0 c -19.161,0 -34.748,15.586 -34.748,34.755 0,19.165 15.587,34.752 34.748,34.752 19.169,0 34.758,-15.587 34.758,-34.752 C 34.758,15.586 19.169,0 0,0 m 0,85.031 c -27.72,0 -50.274,-22.552 -50.274,-50.276 0,-27.725 22.554,-50.282 50.274,-50.282 27.732,0 50.286,22.557 50.286,50.282 0,27.724 -22.554,50.276 -50.286,50.276" /></g><g
           transform="translate(728.5649,100.2861)"
           id="g56"><path
             id="path58"
             style="fill:#ef5a24;fill-opacity:1;fill-rule:nonzero;stroke:none"
             d="m 0,0 c -19.164,0 -34.752,15.592 -34.752,34.753 0,19.173 15.588,34.761 34.752,34.761 19.169,0 34.761,-15.588 34.761,-34.761 C 34.761,15.592 19.169,0 0,0 m 0,85.029 c -27.721,0 -50.276,-22.551 -50.276,-50.276 0,-27.717 22.555,-50.274 50.276,-50.274 9.989,0 19.646,2.928 27.915,8.459 l 4.873,3.269 3.44,-4.768 c 1.477,-2.07 3.774,-3.248 6.287,-3.248 h 7.758 v 7.768 38.794 C 50.273,62.478 27.725,85.029 0,85.029" /></g><g
           transform="translate(667.6538,88.4199)"
           id="g60"><path
             id="path62"
             style="fill:#ef5a24;fill-opacity:1;fill-rule:nonzero;stroke:none"
             d="m 0,0 v 7.764 73.184 c 0,4.284 -3.488,7.757 -7.76,7.757 h -7.761 V 80.948 7.764 C -15.521,3.479 -12.042,0 -7.76,0 Z" /></g><g
           transform="translate(652.1323,202.4395)"
           id="g64"><path
             id="path66"
             style="fill:#ef5a24;fill-opacity:1;fill-rule:nonzero;stroke:none"
             d="m 0,0 v -8.528 c 0,-4.705 3.479,-8.531 7.762,-8.531 h 7.759 v 8.531 C 15.521,-3.824 12.033,0 7.762,0 Z" /></g></g></g></g></svg>